TITLE: TEST

001  AX       V     C        01:00:00:00 01:00:02:00 00:00:00:00 00:00:02:00
* FROM CLIP NAME: EP22-LOCB_sq010_sh010-01.jpg

002  AX       V     C        01:00:00:00 01:00:02:13 00:00:02:00 00:00:04:13
* FROM CLIP NAME: EP22-LOCB_sq010_sh010-02.jpg

003  AX       V     C        01:00:00:00 01:00:02:16 00:00:04:13 00:00:07:05
* FROM CLIP NAME: EP22-LOCB_sq010_sh010-03.jpg

004  AX       V     C        01:00:00:00 01:00:02:07 00:00:07:05 00:00:09:12
* FROM CLIP NAME: EP22-LOCB_sq010_sh010-04.jpg

005  AX       V     C        01:00:00:00 01:00:01:10 00:00:09:12 00:00:10:22
* FROM CLIP NAME: EP22-LOCB_sq010_sh010-05.jpg

006  AX       V     C        01:00:00:00 01:00:02:06 00:00:10:22 00:00:13:04
* FROM CLIP NAME: EP22-LOCB_sq010_sh020-01.jpg

007  AX       V     C        01:00:00:00 01:00:01:22 00:00:13:04 00:00:15:02
* FROM CLIP NAME: EP22-LOCB_sq010_sh020-02.jpg

008  AX       V     C        01:00:00:00 01:00:03:00 00:00:15:02 00:00:18:02
* FROM CLIP NAME: EP22-LOCB_sq010_sh030-01.jpg

009  AX       V     C        01:00:00:00 01:00:03:10 00:00:18:02 00:00:21:12
* FROM CLIP NAME: EP22-LOCB_sq010_sh040-01.jpg

010  AX       V     C        01:00:00:00 01:00:03:19 00:00:21:12 00:00:25:07
* FROM CLIP NAME: EP22-LOCB_sq010_sh040-02.jpg

011  AX       V     C        01:00:00:00 01:00:03:12 00:00:25:07 00:00:28:19
* FROM CLIP NAME: EP22-LOCB_sq010_sh040-03.jpg
